<svg width="117" height="22" viewBox="0 0 117 22" fill="none" xmlns="http://www.w3.org/2000/svg">
<path d="M3.31171 14.3086H10.3436V16.9714H0V0.883929H3.31171V14.3086Z" fill="#3C425F"/>
<path d="M17.7671 17.1924C16.0156 17.1924 14.5879 16.6547 13.484 15.5792C12.3874 14.5038 11.8391 13.0711 11.8391 11.2811V10.9718C11.8391 9.77109 12.071 8.69933 12.5346 7.75647C12.9982 6.80625 13.6532 6.07701 14.4995 5.56875C15.3532 5.05313 16.3247 4.79531 17.4138 4.79531C19.0476 4.79531 20.3318 5.31094 21.2665 6.34219C22.2085 7.37344 22.6795 8.8356 22.6795 10.7287V12.0325H15.0736C15.1766 12.8133 15.4857 13.4394 16.0009 13.9108C16.5234 14.3823 17.182 14.618 17.9768 14.618C19.2058 14.618 20.1662 14.1723 20.858 13.281L22.4256 15.0378C21.9472 15.7155 21.2996 16.2459 20.4827 16.6289C19.6658 17.0046 18.7606 17.1924 17.7671 17.1924ZM17.4028 7.3808C16.7699 7.3808 16.2547 7.59442 15.8573 8.02165C15.4673 8.44888 15.2171 9.06027 15.1067 9.8558H19.5444V9.60168C19.5297 8.89453 19.3383 8.34944 18.9703 7.96641C18.6024 7.576 18.0799 7.3808 17.4028 7.3808Z" fill="#3C425F"/>
<path d="M28.5465 2.07723V5.01629H30.5887V7.35871H28.5465V13.3252C28.5465 13.7672 28.6311 14.0839 28.8004 14.2754C28.9696 14.467 29.2935 14.5627 29.7718 14.5627C30.1251 14.5627 30.4378 14.5369 30.7101 14.4854V16.9051C30.0846 17.0967 29.4406 17.1924 28.7783 17.1924C26.5411 17.1924 25.4004 16.0617 25.3562 13.8003V7.35871H23.612V5.01629H25.3562V2.07723H28.5465Z" fill="#3C425F"/>
<path d="M33.7732 5.82288L32.2719 4.95C32.9048 3.95558 33.2323 2.92801 33.2544 1.8673V0H35.7934V1.71261C35.7934 2.37556 35.6094 3.09375 35.2414 3.86719C34.8735 4.64063 34.3841 5.29252 33.7732 5.82288Z" fill="#3C425F"/>
<path d="M42.1792 13.6677C42.1792 13.2773 41.9842 12.9717 41.5942 12.7507C41.2115 12.5223 40.5933 12.3198 39.7396 12.143C36.8989 11.5463 35.4785 10.3383 35.4785 8.51886C35.4785 7.45815 35.9164 6.57422 36.7922 5.86708C37.6753 5.15257 38.8271 4.79531 40.2474 4.79531C41.7634 4.79531 42.9741 5.15257 43.8792 5.86708C44.7918 6.58159 45.2481 7.50971 45.2481 8.65145H42.0578C42.0578 8.19475 41.9106 7.81909 41.6162 7.52444C41.3219 7.22243 40.8619 7.07143 40.2364 7.07143C39.6991 7.07143 39.2833 7.19297 38.989 7.43605C38.6946 7.67913 38.5474 7.9885 38.5474 8.36417C38.5474 8.71775 38.713 9.00502 39.0442 9.226C39.3827 9.43962 39.9494 9.62746 40.7442 9.78951C41.539 9.9442 42.2087 10.121 42.7533 10.3199C44.4386 10.9386 45.2812 12.0104 45.2812 13.5352C45.2812 14.6253 44.8139 15.5093 43.8792 16.1869C42.9446 16.8573 41.7377 17.1924 40.2584 17.1924C39.2576 17.1924 38.3671 17.0156 37.587 16.6621C36.8143 16.3011 36.2071 15.8113 35.7656 15.1925C35.324 14.5664 35.1032 13.8924 35.1032 13.1705H38.1279C38.1574 13.7377 38.3671 14.1723 38.7571 14.4743C39.1472 14.7763 39.6697 14.9273 40.3247 14.9273C40.9355 14.9273 41.3955 14.8132 41.7046 14.5848C42.021 14.3491 42.1792 14.0434 42.1792 13.6677Z" fill="#3C425F"/>
<path d="M61.9718 12.7507C61.9718 12.1246 61.751 11.6458 61.3094 11.3143C60.8679 10.9754 60.0731 10.6219 58.925 10.2536C57.7769 9.8779 56.8681 9.5096 56.1984 9.14866C54.3732 8.16161 53.4607 6.83203 53.4607 5.15993C53.4607 4.29074 53.7035 3.5173 54.1893 2.83962C54.6823 2.15458 55.3852 1.62054 56.2977 1.2375C57.2176 0.854464 58.2479 0.662946 59.3886 0.662946C60.5367 0.662946 61.5597 0.87288 62.4575 1.29275C63.3553 1.70525 64.0508 2.29085 64.5439 3.04955C65.0443 3.80826 65.2945 4.67009 65.2945 5.63505H61.9828C61.9828 4.89844 61.751 4.32757 61.2874 3.92243C60.8237 3.50993 60.1724 3.30368 59.3334 3.30368C58.5239 3.30368 57.8947 3.47679 57.4458 3.82299C56.9969 4.16183 56.7724 4.61116 56.7724 5.17098C56.7724 5.69397 57.0336 6.13225 57.5562 6.48583C58.086 6.8394 58.8624 7.17087 59.8854 7.48025C61.7694 8.04743 63.1419 8.75089 64.003 9.59063C64.864 10.4304 65.2945 11.4763 65.2945 12.7286C65.2945 14.1208 64.7683 15.2146 63.7159 16.0102C62.6636 16.7983 61.2469 17.1924 59.4659 17.1924C58.2295 17.1924 57.1036 16.9677 56.088 16.5184C55.0724 16.0617 54.296 15.4393 53.7587 14.6511C53.2289 13.8629 52.9639 12.9496 52.9639 11.9109H56.2867C56.2867 13.6862 57.3464 14.5738 59.4659 14.5738C60.2534 14.5738 60.8679 14.4154 61.3094 14.0987C61.751 13.7746 61.9718 13.3252 61.9718 12.7507Z" fill="#3C425F"/>
<path d="M78.3148 11.1044C78.3148 12.9459 77.8953 14.4228 77.0564 15.535C76.2248 16.64 75.0988 17.1924 73.6784 17.1924C72.4715 17.1924 71.4964 16.7725 70.7531 15.9328V21.5679H67.5628V5.01629H70.5213L70.6317 6.1875C71.4044 5.25938 72.4126 4.79531 73.6564 4.79531C75.1282 4.79531 76.2726 5.3404 77.0895 6.43058C77.9064 7.52076 78.3148 9.02344 78.3148 10.9386V11.1044ZM75.1246 10.8723C75.1246 9.76005 74.9258 8.9019 74.5285 8.29788C74.1384 7.69386 73.5681 7.39185 72.8174 7.39185C71.8165 7.39185 71.1284 7.77489 70.7531 8.54096V13.4357C71.1431 14.2239 71.8386 14.618 72.8395 14.618C74.3629 14.618 75.1246 13.3694 75.1246 10.8723Z" fill="#3C425F"/>
<path d="M86.0254 17.1924C84.2738 17.1924 82.8461 16.6547 81.7422 15.5792C80.6457 14.5038 80.0974 13.0711 80.0974 11.2811V10.9718C80.0974 9.77109 80.3292 8.69933 80.7929 7.75647C81.2565 6.80625 81.9115 6.07701 82.7578 5.56875C83.6115 5.05313 84.5829 4.79531 85.6721 4.79531C87.3059 4.79531 88.5901 5.31094 89.5247 6.34219C90.4667 7.37344 90.9377 8.8356 90.9377 10.7287V12.0325H83.3318C83.4349 12.8133 83.744 13.4394 84.2591 13.9108C84.7816 14.3823 85.4403 14.618 86.2351 14.618C87.4641 14.618 88.4245 14.1723 89.1163 13.281L90.6838 15.0378C90.2055 15.7155 89.5579 16.2459 88.741 16.6289C87.9241 17.0046 87.0189 17.1924 86.0254 17.1924ZM85.6611 7.3808C85.0282 7.3808 84.513 7.59442 84.1156 8.02165C83.7256 8.44888 83.4754 9.06027 83.365 9.8558H87.8027V9.60168C87.7879 8.89453 87.5966 8.34944 87.2286 7.96641C86.8607 7.576 86.3382 7.3808 85.6611 7.3808Z" fill="#3C425F"/>
<path d="M99.9067 16.9714C99.7595 16.6842 99.6528 16.3269 99.5866 15.8997C98.8139 16.7615 97.8093 17.1924 96.5729 17.1924C95.4028 17.1924 94.4314 16.8536 93.6586 16.1759C92.8933 15.4982 92.5106 14.6438 92.5106 13.6125C92.5106 12.3455 92.9779 11.3732 93.9125 10.6955C94.8545 10.0179 96.2123 9.67533 97.9859 9.66797H99.4541V8.98292C99.4541 8.43047 99.3106 7.9885 99.0236 7.65703C98.744 7.32556 98.2987 7.15982 97.6879 7.15982C97.1507 7.15982 96.7275 7.28873 96.4184 7.54654C96.1167 7.80435 95.9658 8.15792 95.9658 8.60725H92.7755C92.7755 7.91484 92.9889 7.274 93.4158 6.68471C93.8426 6.09542 94.4461 5.63505 95.2262 5.30357C96.0063 4.96473 96.882 4.79531 97.8535 4.79531C99.3253 4.79531 100.492 5.1673 101.353 5.91127C102.221 6.64788 102.655 7.6865 102.655 9.02712V14.2092C102.663 15.3435 102.821 16.2017 103.13 16.7836V16.9714H99.9067ZM97.2684 14.7506C97.7394 14.7506 98.1736 14.6474 98.571 14.4412C98.9684 14.2276 99.2628 13.944 99.4541 13.5904V11.5353H98.2619C96.6649 11.5353 95.8149 12.0877 95.7119 13.1926L95.7009 13.3805C95.7009 13.7782 95.8407 14.106 96.1203 14.3638C96.4 14.6217 96.7827 14.7506 97.2684 14.7506Z" fill="#3C425F"/>
<path d="M109.671 12.1761L108.522 13.3252V16.9714H105.332V0H108.522V9.40279L109.141 8.60725L112.198 5.01629H116.029L111.713 9.99944L116.404 16.9714H112.739L109.671 12.1761Z" fill="#3C425F"/>
</svg>
