<svg width="115" height="7" viewBox="0 0 115 7" fill="none" xmlns="http://www.w3.org/2000/svg">
<path d="M4.70263 0.110491V6.08806H4.04028V3.67935H2.18573L0.728576 6.08806H0L1.50131 3.59648C1.09286 3.48968 0.774572 3.28343 0.546432 2.97773C0.321972 2.67204 0.209742 2.31111 0.209742 1.89492C0.209742 1.35352 0.402924 0.920759 0.78929 0.596652C1.17934 0.272545 1.70553 0.110491 2.36787 0.110491H4.70263ZM0.872083 1.90597C0.872083 2.25586 0.982473 2.54314 1.20325 2.7678C1.42771 2.99247 1.73865 3.10848 2.13605 3.11585H4.04028V0.673996H2.35131C1.89135 0.673996 1.52891 0.784487 1.26397 1.00547C1.00271 1.22645 0.872083 1.52662 0.872083 1.90597Z" fill="#3C425F"/>
<path d="M11.963 1.69051C11.963 1.32958 11.8287 1.05151 11.5601 0.856306C11.2915 0.661105 10.9216 0.563505 10.4506 0.563505C10.0238 0.563505 9.65768 0.673996 9.35226 0.894978C9.05053 1.11228 8.89966 1.3885 8.89966 1.72366H8.24284C8.24284 1.22645 8.45442 0.815792 8.87759 0.491685C9.30443 0.167578 9.82878 0.00552455 10.4506 0.00552455C11.1351 0.00552455 11.6686 0.152846 12.0513 0.447489C12.434 0.742132 12.6253 1.16016 12.6253 1.70156C12.6253 1.98884 12.537 2.24849 12.3604 2.48052C12.1838 2.71256 11.9262 2.89302 11.5877 3.02193C12.353 3.23186 12.7357 3.70698 12.7357 4.44727C12.7357 4.98499 12.5278 5.41038 12.112 5.72344C11.6962 6.0365 11.1443 6.19303 10.4562 6.19303C9.79014 6.19303 9.23819 6.02545 8.80031 5.69029C8.36243 5.35513 8.14349 4.91685 8.14349 4.37545H8.80583C8.80583 4.73638 8.96406 5.03839 9.28051 5.28147C9.60064 5.52087 9.99253 5.64057 10.4562 5.64057C10.9603 5.64057 11.354 5.5356 11.6373 5.32567C11.9244 5.11205 12.0679 4.82294 12.0679 4.45831C12.0679 4.05686 11.9372 3.76775 11.676 3.59096C11.4147 3.41417 11.0155 3.32578 10.4782 3.32578H9.56752V2.75123H10.5886C11.5049 2.72913 11.963 2.37556 11.963 1.69051Z" fill="#3C425F"/>
<path d="M16.8996 2.28164H18.6217C19.0633 2.28164 19.4497 2.36267 19.7808 2.52472C20.1157 2.68309 20.3677 2.90407 20.537 3.18767C20.71 3.47126 20.7964 3.80089 20.7964 4.17656C20.7964 4.7548 20.5977 5.21886 20.2003 5.56875C19.8066 5.91496 19.273 6.08806 18.5997 6.08806H16.2428V0.110491H16.8996V2.28164ZM16.8996 2.84515V5.53008H18.6107C19.0854 5.53008 19.457 5.41038 19.7256 5.17098C19.9979 4.93158 20.1341 4.6038 20.1341 4.18761C20.1341 3.78984 20.0016 3.46942 19.7367 3.22634C19.4754 2.97958 19.1167 2.85251 18.6604 2.84515H16.8996ZM22.8221 6.08806H22.1597V0.110491H22.8221V6.08806Z" fill="#3C425F"/>
<path d="M28.261 3.34788H27.3448V6.08806H26.6769V0.110491H27.3448V2.76228H28.25L30.4412 0.110491H31.2747L28.824 3.01088L31.5451 6.08806H30.673L28.261 3.34788Z" fill="#3C425F"/>
<path d="M33.9925 3.01088C33.9925 2.43633 34.1029 1.91886 34.3236 1.45848C34.5481 0.998103 34.8627 0.640848 35.2675 0.386719C35.6759 0.128906 36.1377 0 36.6529 0C37.4477 0 38.0916 0.279911 38.5847 0.839732C39.0778 1.39587 39.3243 2.13432 39.3243 3.05508V3.19319C39.3243 3.77143 39.2121 4.29258 38.9876 4.75664C38.7669 5.21702 38.4541 5.57243 38.0493 5.82288C37.6446 6.07333 37.1828 6.19855 36.6639 6.19855C35.8728 6.19855 35.2288 5.92048 34.7321 5.36434C34.239 4.80452 33.9925 4.06423 33.9925 3.14347V3.01088ZM34.6548 3.19319C34.6548 3.9077 34.8388 4.49515 35.2068 4.95552C35.5784 5.41222 36.0641 5.64057 36.6639 5.64057C37.26 5.64057 37.7421 5.41222 38.11 4.95552C38.4817 4.49515 38.6675 3.88929 38.6675 3.13795V3.01088C38.6675 2.55419 38.5829 2.13616 38.4136 1.75681C38.2443 1.37746 38.007 1.08465 37.7016 0.878404C37.3962 0.668471 37.0466 0.563505 36.6529 0.563505C36.0641 0.563505 35.5839 0.795536 35.2123 1.2596C34.8406 1.71998 34.6548 2.324 34.6548 3.07165V3.19319Z" fill="#3C425F"/>
<path d="M42.7431 6.08806V0.110491H44.9344C45.6924 0.110491 46.2738 0.246763 46.6785 0.519308C47.0833 0.78817 47.2857 1.1841 47.2857 1.70709C47.2857 2.00541 47.1955 2.27243 47.0152 2.50815C46.8349 2.74018 46.5718 2.9096 46.2259 3.01641C46.616 3.09007 46.9287 3.25765 47.1642 3.51914C47.4034 3.78064 47.523 4.08449 47.523 4.43069C47.523 4.95737 47.328 5.36618 46.9379 5.65714C46.5516 5.94442 46.0033 6.08806 45.2931 6.08806H42.7431ZM43.3999 3.33683V5.5356H45.3152C45.812 5.5356 46.1946 5.43984 46.4633 5.24833C46.7319 5.05681 46.8662 4.78058 46.8662 4.41964C46.8662 4.08817 46.7319 3.82483 46.4633 3.62963C46.1946 3.43443 45.812 3.33683 45.3152 3.33683H43.3999ZM43.3999 2.78438H45.0723C46.11 2.76964 46.6288 2.41607 46.6288 1.72366C46.6288 1.35904 46.4853 1.09386 46.1983 0.928125C45.915 0.758705 45.4937 0.673996 44.9344 0.673996H43.3999V2.78438Z" fill="#3C425F"/>
<path d="M54.7447 6.08806C54.6785 5.90022 54.6362 5.62215 54.6178 5.25385C54.386 5.55586 54.0898 5.78973 53.7292 5.95547C53.3722 6.11752 52.9932 6.19855 52.5921 6.19855C52.0181 6.19855 51.5526 6.03834 51.1957 5.71791C50.8424 5.39749 50.6658 4.99236 50.6658 4.50251C50.6658 3.92059 50.9068 3.46021 51.3889 3.12137C51.8746 2.78253 52.5498 2.61311 53.4145 2.61311H54.6123V1.93359C54.6123 1.50636 54.4798 1.17121 54.2149 0.928125C53.9536 0.681362 53.5709 0.55798 53.0668 0.55798C52.6068 0.55798 52.226 0.675837 51.9243 0.911551C51.6225 1.14727 51.4717 1.43086 51.4717 1.76233L50.8093 1.75681C50.8093 1.2817 51.0301 0.871038 51.4717 0.524833C51.9132 0.174944 52.456 0 53.0999 0C53.7659 0 54.2903 0.167578 54.673 0.502734C55.0594 0.834208 55.2581 1.29827 55.2691 1.89492V4.72349C55.2691 5.30173 55.3298 5.73449 55.4512 6.02176V6.08806H54.7447ZM52.6694 5.61295C53.111 5.61295 53.5047 5.50614 53.8506 5.29252C54.2001 5.07891 54.454 4.79347 54.6123 4.43622V3.12137H53.4311C52.7724 3.12874 52.2573 3.25028 51.8856 3.48599C51.514 3.71802 51.3282 4.03845 51.3282 4.44727C51.3282 4.78242 51.4514 5.06049 51.698 5.28147C51.9482 5.50246 52.272 5.61295 52.6694 5.61295Z" fill="#3C425F"/>
<path d="M63.3684 0.110491V6.08806H62.7061V3.67935H60.8515L59.3944 6.08806H58.6658L60.1671 3.59648C59.7587 3.48968 59.4404 3.28343 59.2122 2.97773C58.9878 2.67204 58.8755 2.31111 58.8755 1.89492C58.8755 1.35352 59.0687 0.920759 59.4551 0.596652C59.8451 0.272545 60.3713 0.110491 61.0337 0.110491H63.3684ZM59.5379 1.90597C59.5379 2.25586 59.6483 2.54314 59.8691 2.7678C60.0935 2.99247 60.4045 3.10848 60.8019 3.11585H62.7061V0.673996H61.0171C60.5572 0.673996 60.1947 0.784487 59.9298 1.00547C59.6685 1.22645 59.5379 1.52662 59.5379 1.90597Z" fill="#3C425F"/>
<path d="M75.6623 0.110491V5.53008H78.3172V0.110491H78.9796V5.53008H81.6124V0.110491H82.2747V6.08806H75V0.110491H75.6623Z" fill="#3C425F"/>
<path d="M87.5315 3.34788H86.6153V6.08806H85.9474V0.110491H86.6153V2.76228H87.5205L89.7117 0.110491H90.5452L88.0945 3.01088L90.8156 6.08806H89.9435L87.5315 3.34788Z" fill="#3C425F"/>
<path d="M93.263 3.01088C93.263 2.43633 93.3734 1.91886 93.5941 1.45848C93.8186 0.998103 94.1332 0.640848 94.538 0.386719C94.9464 0.128906 95.4082 0 95.9234 0C96.7182 0 97.3621 0.279911 97.8552 0.839732C98.3483 1.39587 98.5948 2.13432 98.5948 3.05508V3.19319C98.5948 3.77143 98.4826 4.29258 98.2581 4.75664C98.0373 5.21702 97.7246 5.57243 97.3198 5.82288C96.915 6.07333 96.4532 6.19855 95.9344 6.19855C95.1433 6.19855 94.4993 5.92048 94.0026 5.36434C93.5095 4.80452 93.263 4.06423 93.263 3.14347V3.01088ZM93.9253 3.19319C93.9253 3.9077 94.1093 4.49515 94.4773 4.95552C94.8489 5.41222 95.3346 5.64057 95.9344 5.64057C96.5305 5.64057 97.0126 5.41222 97.3805 4.95552C97.7522 4.49515 97.938 3.88929 97.938 3.13795V3.01088C97.938 2.55419 97.8534 2.13616 97.6841 1.75681C97.5148 1.37746 97.2775 1.08465 96.9721 0.878404C96.6667 0.668471 96.3171 0.563505 95.9234 0.563505C95.3346 0.563505 94.8544 0.795536 94.4828 1.2596C94.1111 1.71998 93.9253 2.324 93.9253 3.07165V3.19319Z" fill="#3C425F"/>
<path d="M106.446 0.110491V6.08806H105.783V0.67952H103.338L103.233 2.91696C103.189 3.74565 103.106 4.37913 102.985 4.81741C102.864 5.25201 102.683 5.57243 102.444 5.77868C102.205 5.98493 101.887 6.08806 101.489 6.08806H101.235V5.50246L101.44 5.49141C101.819 5.48404 102.091 5.29989 102.256 4.93895C102.422 4.57801 102.531 3.93348 102.582 3.00536L102.704 0.110491H106.446Z" fill="#3C425F"/>
<path d="M113.971 6.08806C113.905 5.90022 113.863 5.62215 113.844 5.25385C113.612 5.55586 113.316 5.78973 112.955 5.95547C112.599 6.11752 112.22 6.19855 111.818 6.19855C111.244 6.19855 110.779 6.03834 110.422 5.71791C110.069 5.39749 109.892 4.99236 109.892 4.50251C109.892 3.92059 110.133 3.46021 110.615 3.12137C111.101 2.78253 111.776 2.61311 112.641 2.61311H113.839V1.93359C113.839 1.50636 113.706 1.17121 113.441 0.928125C113.18 0.681362 112.797 0.55798 112.293 0.55798C111.833 0.55798 111.452 0.675837 111.151 0.911551C110.849 1.14727 110.698 1.43086 110.698 1.76233L110.036 1.75681C110.036 1.2817 110.256 0.871038 110.698 0.524833C111.14 0.174944 111.682 0 112.326 0C112.992 0 113.517 0.167578 113.899 0.502734C114.286 0.834208 114.484 1.29827 114.495 1.89492V4.72349C114.495 5.30173 114.556 5.73449 114.678 6.02176V6.08806H113.971ZM111.896 5.61295C112.337 5.61295 112.731 5.50614 113.077 5.29252C113.426 5.07891 113.68 4.79347 113.839 4.43622V3.12137H112.657C111.999 3.12874 111.484 3.25028 111.112 3.48599C110.74 3.71802 110.554 4.03845 110.554 4.44727C110.554 4.78242 110.678 5.06049 110.924 5.28147C111.175 5.50246 111.498 5.61295 111.896 5.61295Z" fill="#3C425F"/>
</svg>
